<?xml version="1.0" encoding="UTF-8" standalone="no"?>
<svg width="1285px" height="536px" viewBox="0 0 1285 536" version="1.1" xmlns="http://www.w3.org/2000/svg" xmlns:xlink="http://www.w3.org/1999/xlink" xmlns:sketch="http://www.bohemiancoding.com/sketch/ns">
    <!-- Generator: Sketch 3.3.2 (12043) - http://www.bohemiancoding.com/sketch -->
    <title>left</title>
    <desc>Created with Sketch.</desc>
    <defs></defs>
    <g id="footer-illustration" stroke="none" stroke-width="1" fill="none" fill-rule="evenodd" sketch:type="MSPage">
        <g id="illustration" sketch:type="MSArtboardGroup" transform="translate(0.000000, -33.000000)">
            <g id="Group" sketch:type="MSLayerGroup" transform="translate(78.000000, 132.000000)">
                <path d="M911.130108,259.919864 C914.37196,259.919864 917,257.475369 917,254.459932 C917,251.444495 914.37196,249 911.130108,249 L559.869892,250.080136 C556.62804,250.080136 554,252.524631 554,255.540068 C554,258.555505 556.62804,261 559.869892,261 L911.130108,259.919864 Z" id="Shape" fill="#D2D2D2" sketch:type="MSShapeGroup"></path>
                <circle id="Oval-6" fill="#EEEEEE" sketch:type="MSShapeGroup" cx="337" cy="289" r="126"></circle>
                <circle id="Oval-83" fill="#D8D8D8" sketch:type="MSShapeGroup" cx="613.5" cy="141.5" r="16.5"></circle>
                <circle id="Oval-83" fill="#D8D8D8" sketch:type="MSShapeGroup" cx="635.5" cy="285.5" r="13.5"></circle>
                <circle id="Oval-83" fill="#D8D8D8" sketch:type="MSShapeGroup" cx="606.5" cy="37.5" r="9.5"></circle>
                <circle id="Oval-83" fill="#D8D8D8" sketch:type="MSShapeGroup" cx="1143.5" cy="180.5" r="9.5"></circle>
                <g id="logo" transform="translate(4.000000, 0.000000)" sketch:type="MSShapeGroup">
                    <path d="M110.952428,344.559819 C113.905883,344.559819 116.720437,342.860749 117.988815,340.007183 C119.662926,336.245994 118.025367,331.867621 114.340859,330.074158 C112.367016,329.206471 110.415104,328.298848 108.474158,327.358551 C108.444916,327.344029 108.415674,327.325876 108.382776,327.311354 C106.708664,326.494494 105.045519,325.65585 103.400649,324.784532 C102.570904,324.348873 101.755779,323.887801 100.937,323.43762 C100.103599,322.980178 99.2628882,322.526367 98.4367981,322.050772 C96.8321365,321.135888 95.2494064,320.1847 93.6776422,319.215358 C93.6374342,319.189945 93.593571,319.168162 93.5533631,319.139118 C91.722075,318.010035 89.9127185,316.844648 88.132604,315.646585 C84.6454805,313.490073 80.0398457,314.430371 77.7150967,317.835772 C75.3318635,321.324674 76.2456799,326.073357 79.7620455,328.440437 C81.6189205,329.696587 83.4977271,330.912802 85.39481,332.089081 C85.449639,332.121756 85.5008127,332.15443 85.5519864,332.187104 C87.2699613,333.250838 89.0025573,334.278268 90.7497743,335.280283 C91.6453144,335.792183 92.5554756,336.285929 93.4583262,336.783307 C94.3684874,337.284315 95.271338,337.788953 96.1888097,338.275439 C97.9616136,339.212105 99.7526938,340.123359 101.56205,341.001938 C101.627845,341.030982 101.689985,341.063656 101.752124,341.096331 C103.76252,342.065672 105.794848,343.005969 107.849107,343.906331 C108.857961,344.349251 109.914333,344.559819 110.952428,344.559819" id="Fill-57" fill-opacity="0.188575634" fill="#000000"></path>
                    <path d="M77.706317,41.348373 C79.1856307,43.5240306 81.5917871,44.6952596 84.0415596,44.6952596 C85.5172386,44.6952596 87.011091,44.2673803 88.3268442,43.3789867 C103.625201,33.0228565 120.384698,25.415307 137.99471,20.7412693 C153.634727,16.5748849 169.881735,14.7400803 186.285033,15.3565167 C190.533971,15.5088127 194.055974,12.2308219 194.215899,8.02092441 C194.368556,3.89805323 191.217291,0.427879331 187.124644,0.134165553 C184.842067,0.0471392483 182.55222,3.55271368e-15 180.258738,3.55271368e-15 C163.611916,3.55271368e-15 147.244964,2.29894488 131.51408,6.72278203 C115.35067,11.2880369 99.7978859,18.1232279 85.2809846,27.1739636 C83.3327976,28.3887058 81.4136879,29.6397089 79.520021,30.9197208 C76.2124646,33.3347008 75.3873929,37.9398427 77.706317,41.348373" id="Fill-58" fill-opacity="0.253283514" fill="#000000"></path>
                    <path d="M283.107039,317.839818 C280.737146,314.354904 275.986455,313.441066 272.486138,315.809067 C258.797461,325.077995 243.938376,332.138481 228.345061,336.86723 C211.025213,342.147182 192.887534,344.529688 174.524497,343.833431 C170.26814,343.652114 166.756918,346.959337 166.596987,351.169519 C166.44069,355.289042 169.595701,358.763077 173.688492,359.056811 C175.97115,359.143843 178.257442,359.187359 180.551005,359.187359 C191.731666,359.187359 202.785109,358.161104 213.605925,356.148485 C213.863996,356.101343 214.118433,356.046948 214.376504,355.999805 C216.164828,355.658929 217.945883,355.289042 219.723303,354.893771 C220.283063,354.770475 220.839188,354.636301 221.395313,354.509379 C222.838331,354.172129 224.277714,353.816748 225.709827,353.446861 C226.534928,353.232907 227.356394,353.0117 228.17786,352.786867 C229.308284,352.475002 230.435074,352.152257 231.561864,351.818634 C232.630497,351.503142 233.695495,351.180398 234.756858,350.843148 C235.592863,350.578425 236.425233,350.302823 237.261239,350.027221 C238.558864,349.59206 239.860124,349.149647 241.15048,348.685475 C241.699336,348.489653 242.248192,348.282951 242.793412,348.079876 C244.323666,347.514167 245.850284,346.933952 247.365998,346.324727 C247.620434,346.22319 247.871236,346.118026 248.125672,346.012862 C257.576166,342.161688 266.74678,337.494587 275.532105,332.015185 C277.483995,330.796735 279.410442,329.542021 281.307811,328.258296 C284.600944,325.843153 285.42241,321.241326 283.107039,317.839818" id="Fill-59" fill-opacity="0.204427083" fill="#000000"></path>
                    <path d="M37.8850899,283.611738 C39.3610252,283.611738 40.851466,283.186484 42.1642144,282.29236 C45.6491624,279.922568 46.5557566,275.16481 44.191359,271.67191 C34.3856364,257.191461 27.074861,241.391634 22.3533186,224.810356 C17.6390289,208.316311 15.5103458,191.117143 16.16672,173.714434 C16.3262805,169.494605 13.0407833,165.943551 8.83055993,165.783626 C4.69286413,165.63824 1.23692716,168.782213 0.943190644,172.871195 C0.856157604,175.157391 0.812641084,177.443586 0.812641084,179.740685 C0.812641084,196.656351 3.18429143,213.277609 7.74989968,229.240996 C12.3155079,245.135324 19.0750741,260.4263 27.9850816,274.717747 C29.1854123,276.644112 30.4183803,278.5414 31.6839858,280.409611 C33.1671739,282.488631 35.5025604,283.611738 37.8850899,283.611738" id="Fill-60" fill-opacity="0.144474638" fill="#000000"></path>
                    <path d="M19.9932771,117.175055 C20.995216,117.620967 22.0443476,117.832957 23.0753281,117.832957 C25.950457,117.832957 28.6876378,116.180893 29.9799937,113.406741 C30.8258333,111.484206 31.7079751,109.579946 32.6300493,107.686651 C32.6699816,107.606241 32.7135442,107.525831 32.7534765,107.441766 C33.544863,105.822596 34.3544006,104.210737 35.2002402,102.613498 C35.6649075,101.725331 36.1586165,100.855439 36.6378047,99.9818915 C37.0698,99.2033745 37.4872746,98.4248575 37.9301606,97.6536505 C39.9521893,94.1156015 42.1012755,90.6579626 44.3701588,87.295354 C46.5047242,83.8084751 45.5608687,79.2250934 42.1666194,76.9041624 C38.6743543,74.5174413 33.9260354,75.4348487 31.5591364,78.9473127 C30.2994524,80.8150224 29.0797008,82.7010073 27.8926211,84.6089221 C27.8926211,84.6125772 27.8926211,84.6125772 27.8889908,84.6162322 C26.7926665,86.3816017 25.7362744,88.1652462 24.7052939,89.9635108 C24.2188453,90.807818 23.754178,91.6667452 23.2858805,92.5220174 C22.7558694,93.4796298 22.222228,94.4335873 21.710368,95.3985097 C20.7991845,97.1309842 19.9134124,98.8744236 19.0566821,100.636138 C19.0022289,100.745788 18.9477757,100.851784 18.8933225,100.961434 C17.9240556,102.964379 16.9910908,104.989254 16.0944281,107.036059 C14.3882279,110.921334 16.1343605,115.460856 19.9932771,117.175055" id="Fill-61" fill-opacity="0.0402796649" fill="#000000"></path>
                    <path d="M242.822194,19.9935036 C241.151892,23.7545915 242.785645,28.129216 246.469814,29.9226305 C248.443477,30.7902946 250.398864,31.6978931 252.343287,32.6417955 C252.365216,32.656317 252.390801,32.6672082 252.41273,32.6780994 C254.093998,33.4985684 255.760646,34.3371894 257.416329,35.2157446 C258.242343,35.6513919 259.053738,36.1088215 259.872442,36.5553599 C260.705766,37.0200503 261.5464,37.4702192 262.376069,37.9458008 C263.984238,38.8642904 265.566823,39.8154535 267.138443,40.7847687 C267.178647,40.8101814 267.218851,40.8319638 267.259055,40.8573766 C269.090175,41.9900594 270.895711,43.1517854 272.675661,44.3534457 C276.166119,46.5098996 280.771331,45.5696277 283.095866,42.1643183 C285.482536,38.6755099 284.565148,33.9233245 281.052761,31.5563077 C279.196056,30.3074523 277.321077,29.0912704 275.427824,27.9150228 C275.354725,27.8714581 275.274317,27.8242629 275.201218,27.7770678 C273.505331,26.727884 271.794823,25.7150042 270.073351,24.7239067 C269.159619,24.20113 268.231267,23.6965052 267.302915,23.1882501 C266.414767,22.6981469 265.530274,22.2044134 264.634816,21.7288318 C262.8439,20.7849294 261.03471,19.8628094 259.20359,18.9769933 C259.159731,18.955211 259.115872,18.9297982 259.072013,18.9080159 C257.054491,17.9350703 255.02235,16.9947983 252.964625,16.0944607 C249.083089,14.3881756 244.540011,16.134395 242.822194,19.9935036" id="Fill-62" fill-opacity="0.0402796649" fill="#000000"></path>
                    <path d="M318.651874,76.8934589 C315.163285,79.2633072 314.256687,84.0175428 316.621094,87.5141595 C326.278177,101.776866 333.520083,117.319 338.245272,133.628064 C343.111891,150.351487 345.313111,167.809127 344.645855,185.473948 C344.48992,189.693877 347.771805,193.24138 351.982046,193.401308 C352.079959,193.404943 352.177872,193.408578 352.275784,193.408578 C356.253937,193.408578 359.55758,190.329956 359.865823,186.357189 C359.952857,184.060035 360,181.755612 360,179.447554 C360,162.375196 357.584823,145.597252 352.935788,129.502638 C348.37016,113.764228 341.654081,98.6219148 332.827442,84.4682502 C331.619853,82.5273008 330.376001,80.6154293 329.099511,78.7326357 C326.691586,75.4068516 322.071562,74.5672275 318.651874,76.8934589" id="Fill-63" fill="#EAEAEA"></path>
                    <path d="M336.085298,270.078711 C336.615324,269.15401 337.123569,268.218343 337.635444,267.282677 C338.121906,266.401834 338.611999,265.528302 339.08031,264.64015 C340.027823,262.841916 340.953554,261.029062 341.842982,259.194278 C341.861134,259.154074 341.882916,259.113869 341.901067,259.073665 C342.877623,257.059789 343.817875,255.023983 344.718194,252.966248 C346.424443,249.081039 344.678261,244.541595 340.819233,242.823769 C337.061854,241.149803 332.68369,242.78722 330.886683,246.471407 C330.022667,248.445078 329.111457,250.40413 328.167575,252.344907 C328.156684,252.366837 328.145793,252.385111 328.134902,252.407041 C327.31808,254.091972 326.472216,255.765938 325.593679,257.421629 C325.165302,258.236682 324.715142,259.033461 324.272243,259.841204 C323.803932,260.689152 323.346512,261.544409 322.86005,262.385047 C321.95247,263.971294 321.015848,265.535612 320.057444,267.088964 C320.021141,267.151098 319.984838,267.213233 319.948535,267.271712 C318.819506,269.09553 317.661435,270.893764 316.46706,272.670069 C314.29976,276.156888 315.240012,280.769432 318.648881,283.097633 C319.963056,283.99675 321.451486,284.424379 322.929026,284.424379 C325.37586,284.424379 327.779131,283.243831 329.25667,281.054518 C330.505499,279.20146 331.714395,277.326472 332.890618,275.436864 C332.945073,275.349145 332.999528,275.257771 333.053983,275.170053 C334.092253,273.488777 335.101482,271.789227 336.085298,270.078711" id="Fill-64" fill="#BCBCBC"></path>
                    <path d="M316.604618,88.5778781 C314.234652,85.0541659 315.150652,80.2521007 318.647442,77.8638883 C322.075169,75.5196307 326.706054,76.3657612 329.119639,79.717317 C316.288381,60.6555723 300.123903,44.439903 281.425889,31.6930023 C284.87906,34.0922034 285.769615,38.8503137 283.410553,42.3557114 C281.098746,45.791514 276.51875,46.7402057 273.047404,44.5644416 C290.131516,56.2491006 304.885645,71.1168219 316.604618,88.5778781" id="Fill-65" fill-opacity="0.146710824" fill="#000000"></path>
                    <path d="M352.340395,194.079987 C352.241585,194.079987 352.142775,194.076347 352.043965,194.072707 C347.795135,193.912567 344.475851,190.320329 344.633215,186.094808 C343.875672,207.040433 339.147431,227.396451 330.744921,246.318485 C332.556438,242.649816 336.969951,241.019297 340.757668,242.686212 C344.629556,244.389522 346.389838,248.877091 344.710068,252.731377 C353.914036,232.091474 359.129008,209.868366 360,187.019254 C359.688931,190.997286 356.355009,194.079987 352.340395,194.079987" id="Fill-66" fill="#D7D7D7"></path>
                    <path d="M322.781768,283.929206 C321.294159,283.929206 319.795586,283.503755 318.472455,282.609217 C315.040355,280.292874 314.093695,275.703823 316.275765,272.234763 C304.579579,289.372794 289.736388,304.14721 272.25059,315.885289 C272.305416,315.848925 272.195764,315.925288 272.25059,315.885289 C275.766756,313.510764 280.657223,314.365302 283.040321,317.859817 C285.368593,321.270696 284.54255,325.885201 281.231068,328.306998 C300.23737,315.474383 316.407347,299.310889 329.119639,280.616508 C327.628375,282.769216 325.227002,283.929206 322.781768,283.929206" id="Fill-67" fill-opacity="0.146710824" fill="#000000"></path>
                    <path d="M166.020782,352.041301 C166.177522,347.814958 169.665909,344.481452 173.905192,344.62416 C152.971227,343.855734 132.605902,339.128084 113.691337,330.744921 C117.365625,332.552552 118.998642,336.965513 117.329174,340.756415 C116.064315,343.632524 113.257567,345.345017 110.312304,345.345017 C109.295314,345.345017 108.260098,345.140103 107.268623,344.708321 C127.958365,353.918456 150.230091,359.132776 173.132425,360 C169.028012,359.703607 165.864041,356.19812 166.020782,352.041301" id="Fill-68" fill-opacity="0.0637737772" fill="#000000"></path>
                    <path d="M77.4104214,318.481728 C79.7211803,315.055093 84.2990987,314.108932 87.765237,316.278891 C70.3800466,304.409875 55.4073466,289.245738 43.5955903,271.422122 C43.8099531,271.743597 44.0097829,272.072379 44.2241458,272.393854 C46.5930369,275.904511 45.6847198,280.686457 42.1931486,283.068297 C40.8779054,283.966966 39.3846319,284.394382 37.9058916,284.394382 C35.5188341,284.394382 33.1790091,283.265566 31.6930023,281.175976 C44.5257071,300.208777 60.6937525,316.395791 79.3978194,329.119639 C75.9425809,326.726839 75.0524301,321.977772 77.4104214,318.481728" id="Fill-69" fill-opacity="0.0637737772" fill="#000000"></path>
                    <path d="M16.1450782,173.651184 L16.1268166,174.717833 C16.7659726,153.442906 21.5139879,132.737584 30.0677201,113.534278 C28.7674944,116.287973 26.0136455,117.927855 23.1210084,117.927855 C22.0837497,117.927855 21.0282294,117.717428 20.0201892,117.274805 C16.1560352,115.580502 14.4029219,111.110736 16.0756842,107.268623 C6.88279605,127.857847 1.6782408,150.021648 0.812641084,172.809475 C1.10847896,168.727911 4.58913942,165.589641 8.75643594,165.734764 C12.9967789,165.894398 16.3057803,169.43901 16.1450782,173.651184" id="Fill-70" fill-opacity="0.199445199" fill="#000000"></path>
                    <path d="M84.1323351,45.5137004 C81.6695025,45.5137004 79.2505186,44.3386318 77.7633185,42.1558419 C75.4320319,38.7361377 76.2615022,34.1158991 79.5866916,31.6930023 C60.5783013,44.5350829 44.4054571,60.7131941 31.6930023,79.4233416 C34.0827538,75.9563436 38.8403324,75.0577618 42.3445705,77.4224508 C45.7611112,79.7325702 46.7111653,84.2946011 44.5625814,87.765237 C56.4272956,70.3756774 71.5806587,55.3981007 89.3905192,43.5782933 C89.0762705,43.7892963 88.7547137,43.9821094 88.4404651,44.1931125 C87.1176974,45.0844183 85.6158811,45.5137004 84.1323351,45.5137004" id="Fill-71" fill-opacity="0.199445199" fill="#000000"></path>
                    <path d="M252.731377,16.1172121 C232.149596,6.90592436 209.968701,1.6799733 187.189499,0.812641084 C191.272495,1.10907108 194.41633,4.61133661 194.264033,8.77233546 C194.104485,13.0211654 190.590787,16.3294706 186.351869,16.1757661 L185.282167,16.157468 C206.502143,16.7942435 227.156447,21.5334639 246.313168,30.0677201 C242.658053,28.2598631 241.037183,23.8500094 242.694314,20.0586331 C244.391332,16.186745 248.89133,14.4374421 252.731377,16.1172121" id="Fill-72" fill-opacity="0.146710824" fill="#000000"></path>
                </g>
                <path d="M98.2443862,277.757484 L278.297034,120.169524 L459.684316,277.692516 L98.2443862,277.757484 Z" id="Rectangle-72" fill="#D2D2D2" sketch:type="MSShapeGroup"></path>
                <path d="M272.708193,277.980987 L397.822994,174.524658 L501.822988,278.524658 L272.708193,277.980987 Z" id="Rectangle-72" fill="#D2D2D2" sketch:type="MSShapeGroup"></path>
                <path d="M478.743903,277.845335 L534.89304,215.816735 L584.640734,277.828662 L478.743903,277.845335 Z" id="Rectangle-72" fill="#BEBEBE" sketch:type="MSShapeGroup"></path>
                <path d="M357.130108,287.919864 C360.37196,287.919864 363,285.475369 363,282.459932 C363,279.444495 360.37196,277 357.130108,277 L5.86989191,278.080136 C2.62804013,278.080136 0,280.524631 0,283.540068 C0,286.555505 2.62804013,289 5.86989191,289 L357.130108,287.919864 Z" id="Shape" fill="#D2D2D2" sketch:type="MSShapeGroup"></path>
                <path d="M693.130108,317.919864 C696.37196,317.919864 699,315.475369 699,312.459932 C699,309.444495 696.37196,307 693.130108,307 L341.869892,308.080136 C338.62804,308.080136 336,310.524631 336,313.540068 C336,316.555505 338.62804,319 341.869892,319 L693.130108,317.919864 Z" id="Shape" fill-opacity="0.20629529" fill="#000000" sketch:type="MSShapeGroup"></path>
                <path d="M763.137197,355 C766.375134,355 769,352.537566 769,349.5 C769,346.462434 766.375134,344 763.137197,344 L635.862803,344 C632.624866,344 630,346.462434 630,349.5 C630,352.537566 632.624866,355 635.862803,355 L763.137197,355 Z" id="Shape" fill-opacity="0.20629529" fill="#000000" sketch:type="MSShapeGroup"></path>
                <path d="M1187.1372,355 C1190.37513,355 1193,352.537566 1193,349.5 C1193,346.462434 1190.37513,344 1187.1372,344 L995.753906,344 C992.515969,344 989.891103,346.462434 989.891103,349.5 C989.891103,352.537566 992.515969,355 995.753906,355 L1187.1372,355 Z" id="Shape" fill="#E0E0E0" sketch:type="MSShapeGroup"></path>
                <path d="M446.121422,288 C449.368071,288 452,285.537566 452,282.5 C452,279.462434 449.368071,277 446.121422,277 L280.878578,277 C277.631929,277 275,279.462434 275,282.5 C275,285.537566 277.631929,288 280.878578,288 L446.121422,288 Z" id="Shape" fill="#E7E7E7" sketch:type="MSShapeGroup"></path>
                <path d="M168.198891,149 C168.716309,147.603717 169,146.086369 169,144.5 C169,137.596441 163.627417,132 157,132 C155.294454,132 153.672012,132.370638 152.202855,133.03881 C149.936022,125.487337 143.09151,120 135,120 C125.058875,120 117,128.282732 117,138.5 C117,138.831803 117.008499,139.161565 117.025285,139.48907 C116.070904,139.171384 115.054513,139 114,139 C108.636784,139 104.259687,143.433183 104.011138,149 L168.198891,149 Z" id="Oval-8" fill-opacity="0.1" fill="#000000" sketch:type="MSShapeGroup"></path>
                <circle id="Oval-83" fill="#D8D8D8" sketch:type="MSShapeGroup" cx="464" cy="101" r="15"></circle>
                <circle id="Oval-83" fill="#D8D8D8" sketch:type="MSShapeGroup" cx="980" cy="85" r="15"></circle>
                <path d="M1015.1372,319 C1018.37513,319 1021,316.537566 1021,313.5 C1021,310.462434 1018.37513,308 1015.1372,308 L887.862803,308 C884.624866,308 882,310.462434 882,313.5 C882,316.537566 884.624866,319 887.862803,319 L1015.1372,319 Z" id="Shape" fill="#CBCBCB" sketch:type="MSShapeGroup"></path>
            </g>
        </g>
    </g>
</svg>