<?xml version="1.0" encoding="UTF-8" standalone="no"?>
<svg width="1415px" height="536px" viewBox="0 0 1415 536" version="1.1" xmlns="http://www.w3.org/2000/svg" xmlns:xlink="http://www.w3.org/1999/xlink" xmlns:sketch="http://www.bohemiancoding.com/sketch/ns">
    <!-- Generator: Sketch 3.3.2 (12043) - http://www.bohemiancoding.com/sketch -->
    <title>right</title>
    <desc>Created with Sketch.</desc>
    <defs></defs>
    <g id="footer-illustration" stroke="none" stroke-width="1" fill="none" fill-rule="evenodd" sketch:type="MSPage">
        <g id="illustration" sketch:type="MSArtboardGroup" transform="translate(-1285.000000, -33.000000)">
            <g id="Group" sketch:type="MSLayerGroup" transform="translate(1296.000000, 89.000000)">
                <g transform="translate(459.000000, 0.000000)" sketch:type="MSShapeGroup">
                    <g id="Oval-6-+-Line" transform="translate(0.000000, 83.000000)">
                        <circle id="Oval-6" fill="#F2F2F2" cx="281.5" cy="121.5" r="55.5"></circle>
                        <circle id="Oval-6" fill="#F2F2F2" cx="87.5" cy="88.5" r="87.5"></circle>
                        <path d="M277,148.20438 L277,235.79562 C277,238.117635 278.790861,240 281,240 C283.209139,240 285,238.117635 285,235.79562 L285,148.20438 C285,145.882365 283.209139,144 281,144 C278.790861,144 277,145.882365 277,148.20438 L277,148.20438 Z" id="Shape" fill="#D2D2D2"></path>
                        <path d="M84,135.205088 L84,235.794912 C84,238.117318 85.790861,240 88,240 C90.209139,240 92,238.117318 92,235.794912 L92,135.205088 C92,132.882682 90.209139,131 88,131 C85.790861,131 84,132.882682 84,135.205088 L84,135.205088 Z" id="Shape" fill="#D2D2D2"></path>
                    </g>
                    <path d="M244.731111,144.146467 L294.345184,106.510472 C296.188265,105.112356 296.54601,102.488753 295.14423,100.65049 C293.74245,98.8122273 291.11197,98.4554173 289.268889,99.8535327 L239.654816,137.489528 C237.811735,138.887644 237.45399,141.511247 238.85577,143.34951 C240.25755,145.187773 242.88803,145.544583 244.731111,144.146467 L244.731111,144.146467 Z" id="Shape" fill="#C6C6C6"></path>
                    <g id="tree" transform="translate(397.000000, 218.000000)" fill="#D6D6D6">
                        <path d="M34.5,69 C53.5538239,69 69,53.5538239 69,34.5 C69,15.4461761 53.5538239,0 34.5,0 C15.4461761,0 0,15.4461761 0,34.5 C0,53.5538239 15.4461761,69 34.5,69 L34.5,69 Z M34,60 C19.6405965,60 8,48.3594035 8,34 C8,19.6405965 19.6405965,8 34,8 C48.3594035,8 60,19.6405965 60,34 C60,48.3594035 48.3594035,60 34,60 L34,60 Z" id="Shape"></path>
                        <path d="M30,46.229904 L30,103.770096 C30,106.106207 31.790861,108 34,108 C36.209139,108 38,106.106207 38,103.770096 L38,46.229904 C38,43.8937925 36.209139,42 34,42 C31.790861,42 30,43.8937925 30,46.229904 L30,46.229904 Z" id="Shape"></path>
                    </g>
                    <g id="tree" transform="translate(297.000000, 88.000000)">
                        <path d="M0.303046974,74.1826925 C4.58832877,106.267898 32.062644,130.5 64.7277582,130.5 C100.626267,130.5 129.727758,101.398509 129.727758,65.5 C129.727758,29.6014913 100.626267,0.5 64.7277582,0.5 C53.5824841,0.5 40.953619,3.60621129 31.7055045,8.62154854 L29.9989313,9.54703879 L29.8805381,11.4847971 L29.8805521,11.4845688 C29.8805753,11.4841897 29.8805753,11.4841897 29.8805772,11.4841586 C29.8806019,11.4837554 29.8806019,11.4837554 29.8806079,11.4836594 C29.8806054,11.4836992 29.8806054,11.4836992 29.8805648,11.4843531 C29.8804258,11.486578 29.8804258,11.486578 29.8801312,11.4912354 C29.879305,11.5041795 29.879305,11.5041795 29.8778299,11.5267026 C29.8738802,11.5859693 29.8738802,11.5859693 29.8671265,11.6823684 C29.8544591,11.860785 29.8383104,12.0725415 29.8184035,12.316059 C29.7608557,13.0200314 29.6849455,13.8322977 29.5884747,14.740198 C29.3117135,17.3448364 28.9263374,20.1822026 28.4152872,23.1502328 C26.9657199,31.568895 24.8128647,39.3272652 21.8600537,45.577128 C19.8307193,49.8723781 16.9751062,54.2388246 13.5039076,58.5600571 C10.8745109,61.8333455 8.04950822,64.8886761 5.22578992,67.635115 C4.23947368,68.5944377 3.32573127,69.4449012 2.50910971,70.1756523 C2.22645321,70.4285865 1.97716157,70.6476524 1.76429591,70.8315115 C1.64154263,70.9375376 1.56126056,71.0057519 1.52656288,71.034777 L0.0478230053,72.2717532 L0.303046974,74.1826925 L0.303046974,74.1826925 Z M7.24143659,73.2560052 L6.01791143,76.4039285 C6.24170412,76.2167238 6.63613701,75.876039 7.17699192,75.3920568 C8.06393307,74.5983804 9.04844139,73.6820518 10.1063957,72.6530515 C13.1234558,69.7185622 16.1392284,66.4569079 18.9612225,62.9438583 C22.7532221,58.2232666 25.9018715,53.4087455 28.1892127,48.5674033 C31.4552043,41.6546684 33.7659712,33.3272228 35.3137721,24.3380483 C35.8518008,21.2133354 36.2572876,18.2279016 36.5492892,15.4798336 C36.6518854,14.5142862 36.7330605,13.6456841 36.795131,12.8863869 C36.8170905,12.6177595 36.8351343,12.3811526 36.8495498,12.1781156 C36.8575507,12.0639331 36.8575507,12.0639331 36.8626569,11.9873453 C36.864694,11.9562458 36.864694,11.9562458 36.8660612,11.9348353 C36.8666226,11.9259649 36.8666226,11.9259649 36.8670232,11.9195523 C36.8671938,11.916809 36.8671938,11.916809 36.8673251,11.9146832 C36.8673835,11.9137361 36.8673835,11.9137361 36.8674324,11.912941 C36.8674566,11.9125466 36.8674566,11.9125466 36.8674575,11.9125314 L36.8674917,11.9119737 L35.0425428,14.7749358 C43.2502945,10.3237969 54.7309526,7.5 64.7277582,7.5 C96.7602737,7.5 122.727758,33.4674845 122.727758,65.5 C122.727758,97.5325155 96.7602737,123.5 64.7277582,123.5 C35.5817881,123.5 11.063823,101.875373 7.24143659,73.2560052 L7.24143659,73.2560052 Z" id="Shape" fill="#DADADA"></path>
                        <path d="M57,88.2147229 L57,230.785277 C57,233.113004 58.790861,235 61,235 C63.209139,235 65,233.113004 65,230.785277 L65,88.2147229 C65,85.8869957 63.209139,84 61,84 C58.790861,84 57,85.8869957 57,88.2147229 L57,88.2147229 Z" id="Shape" fill="#D7D7D7"></path>
                        <path d="M64.9861187,115.907231 L88.6382516,94.2793643 C90.3416812,92.7217226 90.4635256,90.074088 88.9103986,88.3657068 C87.3572716,86.6573256 84.7173109,86.535127 83.0138813,88.0927687 L59.3617484,109.720636 C57.6583188,111.278277 57.5364744,113.925912 59.0896014,115.634293 C60.6427284,117.342674 63.2826891,117.464873 64.9861187,115.907231 L64.9861187,115.907231 Z" id="Shape" fill="#D7D7D7"></path>
                    </g>
                    <g id="tree" transform="translate(149.000000, 0.000000)">
                        <path d="M93,187 C144.362482,187 186,145.138624 186,93.5 C186,41.8613759 144.362482,0 93,0 C41.6375183,0 0,41.8613759 0,93.5 C0,145.138624 41.6375183,187 93,187 L93,187 Z M92.5,178 C45.8319386,178 8,139.944204 8,93 C8,46.0557963 45.8319386,8 92.5,8 C139.168061,8 177,46.0557963 177,93 C177,139.944204 139.168061,178 92.5,178 L92.5,178 Z" id="Shape" fill="#CECECE"></path>
                        <path d="M88,106.211894 L88,318.788106 C88,321.114271 89.790861,323 92,323 C94.209139,323 96,321.114271 96,318.788106 L96,106.211894 C96,103.885729 94.209139,102 92,102 C89.790861,102 88,103.885729 88,106.211894 L88,106.211894 Z" id="Shape" fill="#CECECE"></path>
                        <g id="Group" transform="translate(16.000000, 26.000000)">
                            <path d="M135.62651,62.4217931 C139.09932,58.2299161 146.95556,57 146.95556,57 C146.95556,57 147.572635,63.0128184 144.207928,67.8168881 C140.84322,72.6209578 136.179994,75.3495567 133.431408,73.3244098 C130.682821,71.2992629 132.153699,66.61367 135.62651,62.4217931 L135.62651,62.4217931 Z" id="Path-50" fill="#F2F2F2"></path>
                            <path d="M25.4704782,30.0479313 C30.8579746,29.4907716 37,33.9748567 37,33.9748567 C37,33.9748567 33.0070442,38.5795236 27.2432109,39.6362812 C21.4793777,40.6930388 16.3696373,39.4225169 16.0194943,36.1446017 C15.6693514,32.8666866 20.0829818,30.6050911 25.4704782,30.0479313 L25.4704782,30.0479313 Z" id="Path-50" fill="#F2F2F2"></path>
                            <path d="M115.470478,6.04793133 C120.857975,5.49077155 127,9.97485672 127,9.97485672 C127,9.97485672 123.007044,14.5795236 117.243211,15.6362812 C111.479378,16.6930388 106.369637,15.4225169 106.019494,12.1446017 C105.669351,8.8666866 110.082982,6.6050911 115.470478,6.04793133 L115.470478,6.04793133 Z" id="Path-50" fill="#EAEAEA"></path>
                            <path d="M64.6265098,8.42179306 C68.0993204,4.22991607 75.95556,3 75.95556,3 C75.95556,3 76.5726353,9.01281836 73.2079277,13.8168881 C69.8432201,18.6209578 65.1799944,21.3495567 62.4314077,19.3244098 C59.6828211,17.2992629 61.1536993,12.61367 64.6265098,8.42179306 L64.6265098,8.42179306 Z" id="Path-50" fill="#F2F2F2"></path>
                            <path d="M39.6265098,51.4217931 C43.0993204,47.2299161 50.95556,46 50.95556,46 C50.95556,46 51.5726353,52.0128184 48.2079277,56.8168881 C44.8432201,61.6209578 40.1799944,64.3495567 37.4314077,62.3244098 C34.6828211,60.2992629 36.1536993,55.61367 39.6265098,51.4217931 L39.6265098,51.4217931 Z" id="Path-50" fill="#F2F2F2"></path>
                            <path d="M84.3518118,58.6975091 C88.5191844,53.5193081 97.946672,52 97.946672,52 C97.946672,52 98.6871623,59.4275992 94.6495132,65.3620382 C90.6118641,71.2964773 85.0159933,74.6670995 81.7176893,72.1654474 C78.4193853,69.6637953 80.1844392,63.8757101 84.3518118,58.6975091 L84.3518118,58.6975091 Z" id="Path-50" fill="#F2F2F2"></path>
                            <path d="M109.003675,65.9086988 C109.098827,60.5163285 114.404592,55 114.404592,55 C114.404592,55 118.589673,59.5134461 118.955572,65.3392995 C119.321472,71.165153 117.404855,76.0576882 114.034042,75.999486 C110.663229,75.9412838 108.908523,71.301069 109.003675,65.9086988 L109.003675,65.9086988 Z" id="Path-50" fill="#E2E2E2"></path>
                            <path d="M85.0036748,10.9086988 C85.0988268,5.51632851 90.404592,5.32907052e-15 90.404592,5.32907052e-15 C90.404592,5.32907052e-15 94.5896726,4.51344612 94.9555722,10.3392995 C95.3214717,16.165153 93.4048547,21.0576882 90.0340419,20.999486 C86.6632291,20.9412838 84.9085228,16.301069 85.0036748,10.9086988 L85.0036748,10.9086988 Z" id="Path-50" fill="#EAEAEA"></path>
                            <path d="M38.0036748,10.9086988 C38.0988268,5.51632851 43.404592,-8.8817842e-15 43.404592,-8.8817842e-15 C43.404592,-8.8817842e-15 47.5896726,4.51344612 47.9555722,10.3392995 C48.3214717,16.165153 46.4048547,21.0576882 43.0340419,20.999486 C39.6632291,20.9412838 37.9085228,16.301069 38.0036748,10.9086988 L38.0036748,10.9086988 Z" id="Path-50" fill="#EAEAEA"></path>
                            <path d="M63.0387689,68.4321228 C59.1943704,64.5725932 59,57 59,57 C59,57 65.2788343,57.2627934 69.7686921,61.1064331 C74.2585498,64.9500728 76.4328933,69.7254754 73.9712258,72.0301506 C71.5095583,74.3348258 66.8831674,72.2916524 63.0387689,68.4321228 L63.0387689,68.4321228 Z" id="Path-50" fill="#F2F2F2"></path>
                            <path d="M50.0387689,92.4321228 C46.1943704,88.5725932 46,81 46,81 C46,81 52.2788343,81.2627934 56.7686921,85.1064331 C61.2585498,88.9500728 63.4328933,93.7254754 60.9712258,96.0301506 C58.5095583,98.3348258 53.8831674,96.2916524 50.0387689,92.4321228 L50.0387689,92.4321228 Z" id="Path-50" fill="#F2F2F2"></path>
                            <path d="M13.3581893,102.087148 C8.00342318,100.488716 4,93.8330717 4,93.8330717 C4,93.8330717 9.68925823,91.060147 15.6071675,92.3352872 C21.5250768,93.6104274 25.865364,96.8249306 24.8530443,100.057838 C23.8407245,103.290745 18.7129554,103.685579 13.3581893,102.087148 L13.3581893,102.087148 Z" id="Path-50" fill="#F2F2F2"></path>
                            <path d="M4.03876889,68.4321228 C0.194370355,64.5725932 7.10542736e-14,57 7.10542736e-14,57 C7.10542736e-14,57 6.27883433,57.2627934 10.7686921,61.1064331 C15.2585498,64.9500728 17.4328933,69.7254754 14.9712258,72.0301506 C12.5095583,74.3348258 7.88316743,72.2916524 4.03876889,68.4321228 L4.03876889,68.4321228 Z" id="Path-50" fill="#E2E2E2"></path>
                            <path d="M133.273415,84.0325832 C138.664736,84.31772 144,89.8109562 144,89.8109562 C144,89.8109562 139.340052,93.831384 133.499134,93.991407 C127.658216,94.15143 122.829883,92.0648566 123.004597,88.7005491 C123.179312,85.3362416 127.882093,83.7474464 133.273415,84.0325832 L133.273415,84.0325832 Z" id="Path-50" fill="#C6C6C6"></path>
                            <path d="M112.843547,39.0691721 C108.038719,41.2927864 101,38.8341977 101,38.8341977 C101,38.8341977 103.282971,33.0973194 108.282965,30.2690064 C113.282958,27.4406933 118.388607,27.0865208 119.711422,30.1747854 C121.034237,33.26305 117.648375,36.8455577 112.843547,39.0691721 L112.843547,39.0691721 Z" id="Path-50" fill="#F2F2F2"></path>
                            <path d="M101.843547,97.0691721 C97.0387189,99.2927864 90,96.8341977 90,96.8341977 C90,96.8341977 92.2829715,91.0973194 97.282965,88.2690064 C102.282958,85.4406933 107.388607,85.0865208 108.711422,88.1747854 C110.034237,91.26305 106.648375,94.8455577 101.843547,97.0691721 L101.843547,97.0691721 Z" id="Path-50" fill="#F2F2F2"></path>
                            <path d="M65.764032,40.3184981 C60.9547771,38.0822499 58,30.9598159 58,30.9598159 C58,30.9598159 63.6343672,28.8727919 69.0070607,30.8537316 C74.3797542,32.8346713 78.0526961,36.5626174 76.7286621,39.6684285 C75.4046282,42.7742397 70.5732869,42.5547464 65.764032,40.3184981 L65.764032,40.3184981 Z" id="Path-50" fill="#C6C6C6"></path>
                            <path d="M34.764032,126.318498 C29.9547771,124.08225 27,116.959816 27,116.959816 C27,116.959816 32.6343672,114.872792 38.0070607,116.853732 C43.3797542,118.834671 47.0526961,122.562617 45.7286621,125.668429 C44.4046282,128.77424 39.5732869,128.554746 34.764032,126.318498 L34.764032,126.318498 Z" id="Path-50" fill="#C6C6C6"></path>
                            <path d="M115.764032,110.458623 C110.954777,108.408729 108,101.879831 108,101.879831 C108,101.879831 113.634367,99.9667259 119.007061,101.782587 C124.379754,103.598449 128.052696,107.015733 126.728662,109.862726 C125.404628,112.70972 120.573287,112.508518 115.764032,110.458623 L115.764032,110.458623 Z" id="Path-50" fill="#E2E2E2"></path>
                            <path d="M129.128184,31.0572542 C132.71771,27.4258525 140,27 140,27 C140,27 139.951662,32.7326007 136.398463,36.9519004 C132.845264,41.1712001 128.31979,43.3102044 126.021324,41.1417532 C123.722858,38.973302 125.538659,34.688656 129.128184,31.0572542 L129.128184,31.0572542 Z" id="Path-50" fill="#F2F2F2"></path>
                            <path d="M21.1260415,77.9508692 C21.6905354,72.8196202 27.4074107,68 27.4074107,68 C27.4074107,68 31.1431341,72.6466352 30.995751,78.2290341 C30.8483678,83.8114331 28.5301682,88.3160915 25.2091041,87.9826026 C21.88804,87.6491136 20.5615475,83.0821182 21.1260415,77.9508692 L21.1260415,77.9508692 Z" id="Path-50" fill="#C6C6C6"></path>
                        </g>
                        <path d="M0,94.187356 C0,110.006893 3.90816133,125.261687 11.2558252,138.828536 C12.3534868,140.855277 14.8625418,141.59538 16.8599565,140.481602 C18.8573711,139.367825 19.586765,136.821932 18.4891034,134.795191 C11.8066029,122.45651 8.25353341,108.587753 8.25353341,94.187356 C8.25353341,91.8747431 6.40591702,90 4.1267667,90 C1.84761639,90 0,91.8747431 0,94.187356 L0,94.187356 Z M186,93.7642458 C186,65.7458205 173.745188,39.7295298 152.914608,21.9997265 C151.141252,20.4903469 148.489587,20.715613 146.991949,22.5028724 C145.494312,24.2901319 145.717825,26.9625859 147.491181,28.4719655 C166.450191,44.6087939 177.594393,68.2673224 177.594393,93.7642458 C177.594393,96.1035882 179.476052,98 181.797196,98 C184.118341,98 186,96.1035882 186,93.7642458 L186,93.7642458 Z M92.8171253,0 C78.2132579,0 64.0842421,3.43737533 51.3088349,9.9479393 C49.2437777,11.0003274 48.4091628,13.5548062 49.4446705,15.6535273 C50.4801781,17.7522484 52.9936825,18.6004688 55.0587397,17.5480807 C66.6767586,11.6273414 79.522673,8.50212522 92.8171253,8.50212522 C95.1272632,8.50212522 97,6.59885966 97,4.25106261 C97,1.90326556 95.1272632,0 92.8171253,0 L92.8171253,0 Z" id="Shape" fill="#C6C6C6"></path>
                    </g>
                    <path d="M240.108985,151.317215 L196.542192,122.695284 C194.599948,121.419295 191.984247,121.949106 190.69986,123.878651 C189.415473,125.808197 189.948772,128.406796 191.891015,129.682785 L235.457808,158.304716 C237.400052,159.580705 240.015753,159.050894 241.30014,157.121349 C242.584527,155.191803 242.051228,152.593204 240.108985,151.317215 L240.108985,151.317215 Z" id="Shape" fill="#CECECE"></path>
                </g>
                <path d="M1128.13011,323.919864 C1131.37196,323.919864 1134,321.475369 1134,318.459932 C1134,315.444495 1131.37196,313 1128.13011,313 L776.869892,314.080136 C773.62804,314.080136 771,316.524631 771,319.540068 C771,322.555505 773.62804,325 776.869892,325 L1128.13011,323.919864 Z" id="Shape" fill="#EFEFEF" sketch:type="MSShapeGroup"></path>
                <path d="M747.130108,324.919864 C750.37196,324.919864 753,322.475369 753,319.459932 C753,316.444495 750.37196,314 747.130108,314 L395.869892,315.080136 C392.62804,315.080136 390,317.524631 390,320.540068 C390,323.555505 392.62804,326 395.869892,326 L747.130108,324.919864 Z" id="Shape" fill="#CECECE" sketch:type="MSShapeGroup"></path>
                <rect id="Rectangle-30" fill-opacity="0.109459918" fill="#000000" sketch:type="MSShapeGroup" transform="translate(753.234800, 354.716737) rotate(-180.000000) translate(-753.234800, -354.716737) " x="684.469601" y="349.433474" width="138" height="11" rx="15.36"></rect>
                <path d="M508.249515,360 C511.42542,360 514,357.313708 514,354 C514,350.686291 511.42542,348 508.249515,348 L208.750485,348 C205.57458,348 203,350.686292 203,354 C203,357.313709 205.57458,360 208.750485,360 L508.249515,360 Z" id="Shape" fill="#E0E0E0" sketch:type="MSShapeGroup"></path>
                <path d="M988.761155,360 L1139.23884,360 C1142.42064,360 1145,357.313708 1145,354 C1145,350.686292 1142.42064,348 1139.23884,348 L988.761155,348 C985.579357,348 983,350.686292 983,354 C983,357.313708 985.579357,360 988.761155,360 L988.761155,360 Z" id="Shape" fill="#E0E0E0" sketch:type="MSShapeGroup"></path>
                <path d="M1248.13011,322.919864 C1251.37196,322.919864 1254,320.475369 1254,317.459932 C1254,314.444495 1251.37196,312 1248.13011,312 L896.869892,313.080136 C893.62804,313.080136 891,315.524631 891,318.540068 C891,321.555505 893.62804,324 896.869892,324 L1248.13011,322.919864 Z" id="Shape" fill-opacity="0.123358243" fill="#000000" sketch:type="MSShapeGroup"></path>
                <g transform="translate(933.000000, 104.000000)" sketch:type="MSShapeGroup">
                    <rect id="Rectangle-29" fill="#D0D0D0" x="124.887273" y="0" width="18.5018182" height="12.7016575"></rect>
                    <rect id="Rectangle-29" fill="#D0D0D0" x="289.090909" y="0" width="18.5018182" height="12.7016575"></rect>
                    <rect id="Rectangle-29" fill="#DCDCDC" x="74.0072727" y="15.0110497" width="74.0072727" height="193.98895"></rect>
                    <rect id="Rectangle-29" fill="#C6C6C6" x="189.643636" y="15.0110497" width="117.949091" height="193.98895"></rect>
                    <g transform="translate(89.040000, 28.867403)" id="Rectangle-33" fill="#FFFFFF">
                        <rect x="0" y="0" width="17.3454545" height="17.320442"></rect>
                        <rect x="0" y="25.4033149" width="17.3454545" height="17.320442"></rect>
                        <rect x="0" y="51.961326" width="17.3454545" height="17.320442"></rect>
                        <rect x="0" y="77.3646409" width="17.3454545" height="17.320442"></rect>
                        <rect x="28.9090909" y="0" width="17.3454545" height="17.320442"></rect>
                        <rect x="28.9090909" y="26.558011" width="17.3454545" height="17.320442"></rect>
                        <rect x="28.9090909" y="51.961326" width="17.3454545" height="17.320442"></rect>
                        <rect x="28.9090909" y="78.519337" width="17.3454545" height="17.320442"></rect>
                    </g>
                    <g transform="translate(204.676364, 28.867403)" id="Rectangle-33" fill="#FFFFFF">
                        <rect x="0" y="0" width="17.3454545" height="17.320442"></rect>
                        <rect x="0" y="25.4033149" width="17.3454545" height="17.320442"></rect>
                        <rect x="0" y="51.961326" width="17.3454545" height="17.320442"></rect>
                        <rect x="0" y="77.3646409" width="17.3454545" height="17.320442"></rect>
                        <rect x="28.9090909" y="0" width="17.3454545" height="17.320442"></rect>
                        <rect x="28.9090909" y="26.558011" width="17.3454545" height="17.320442"></rect>
                        <rect x="28.9090909" y="51.961326" width="17.3454545" height="17.320442"></rect>
                        <rect x="28.9090909" y="78.519337" width="17.3454545" height="17.320442"></rect>
                    </g>
                    <g transform="translate(87.883636, 132.790055)" id="Rectangle-33" fill="#FFFFFF">
                        <rect x="0" y="0" width="17.3454545" height="17.320442"></rect>
                        <rect x="0" y="25.4033149" width="17.3454545" height="17.320442"></rect>
                        <rect x="28.9090909" y="0" width="17.3454545" height="17.320442"></rect>
                        <rect x="28.9090909" y="26.558011" width="17.3454545" height="17.320442"></rect>
                    </g>
                    <g transform="translate(203.520000, 132.790055)" id="Rectangle-33" fill="#FFFFFF">
                        <rect x="0" y="0" width="17.3454545" height="17.320442"></rect>
                        <rect x="0" y="25.4033149" width="17.3454545" height="17.320442"></rect>
                        <rect x="28.9090909" y="0" width="17.3454545" height="17.320442"></rect>
                        <rect x="28.9090909" y="26.558011" width="17.3454545" height="17.320442"></rect>
                        <rect x="65.9127273" y="26.558011" width="24.2836364" height="47.3425414"></rect>
                    </g>
                    <g transform="translate(0.000000, 70.436464)">
                        <rect id="Rectangle-29" fill="#C7C7C7" x="8.09454545" y="11.5469613" width="72.8509091" height="127.016575"></rect>
                        <rect id="Rectangle-29" fill="#BABABA" x="58.9745455" y="1.15469613" width="18.5018182" height="9.23756906"></rect>
                        <g transform="translate(21.970909, 36.950276)" id="Rectangle-33" fill="#FFFFFF">
                            <rect x="0" y="1.15469613" width="17.3454545" height="11.5469613"></rect>
                            <rect x="0" y="21.9392265" width="17.3454545" height="11.5469613"></rect>
                            <rect x="0" y="41.5690608" width="17.3454545" height="11.5469613"></rect>
                            <rect x="0" y="63.5082873" width="17.3454545" height="11.5469613"></rect>
                            <rect x="28.9090909" y="1.15469613" width="17.3454545" height="11.5469613"></rect>
                            <rect x="28.9090909" y="21.9392265" width="17.3454545" height="11.5469613"></rect>
                            <rect x="28.9090909" y="42.7237569" width="17.3454545" height="11.5469613"></rect>
                            <rect x="28.9090909" y="63.5082873" width="17.3454545" height="11.5469613"></rect>
                        </g>
                        <path d="M5.1830237,18.4751381 L83.8569763,18.4751381 C86.0808392,18.4751381 87.8836364,16.6657254 87.8836364,14.4337017 C87.8836364,12.2016779 86.0808392,10.3922652 83.8569763,10.3922652 L5.1830237,10.3922652 C2.95916075,10.3922652 1.15636364,12.2016779 1.15636364,14.4337017 C1.15636364,16.6657254 2.95916075,18.4751381 5.1830237,18.4751381 L5.1830237,18.4751381 Z" id="Shape" fill="#B0B0B0"></path>
                    </g>
                    <path d="M72.2521146,20.7845304 L150.926067,20.7845304 C153.14993,20.7845304 154.952727,18.9751176 154.952727,16.7430939 C154.952727,14.5110702 153.14993,12.7016575 150.926067,12.7016575 L72.2521146,12.7016575 C70.0282517,12.7016575 68.2254545,14.5110702 68.2254545,16.7430939 C68.2254545,18.9751176 70.0282517,20.7845304 72.2521146,20.7845304 L72.2521146,20.7845304 Z" id="Shape" fill="#EDEDED"></path>
                    <path d="M187.910875,20.7845304 L313.950943,20.7845304 C316.187175,20.7845304 318,18.9751176 318,16.7430939 C318,14.5110702 316.187175,12.7016575 313.950943,12.7016575 L187.910875,12.7016575 C185.674643,12.7016575 183.861818,14.5110702 183.861818,16.7430939 C183.861818,18.9751176 185.674643,20.7845304 187.910875,20.7845304 L187.910875,20.7845304 Z" id="Shape" fill="#DEDEDE"></path>
                </g>
                <circle id="Oval-83" fill="#D8D8D8" sketch:type="MSShapeGroup" cx="1218" cy="204" r="8"></circle>
                <circle id="Oval-83" fill="#D8D8D8" sketch:type="MSShapeGroup" cx="1074.5" cy="67.5" r="16.5"></circle>
                <circle id="Oval-83" fill="#D8D8D8" sketch:type="MSShapeGroup" cx="234.5" cy="243.5" r="11.5"></circle>
                <circle id="Oval-83" fill="#F2F2F2" sketch:type="MSShapeGroup" cx="130.5" cy="401.5" r="8.5"></circle>
                <circle id="Oval-83" fill="#D8D8D8" sketch:type="MSShapeGroup" cx="1359.5" cy="121.5" r="16.5"></circle>
                <g id="Oval-48-+-Line" transform="translate(1241.000000, 248.000000)" sketch:type="MSShapeGroup">
                    <circle id="Oval-48" stroke="#D8D8D8" stroke-width="8" cx="28" cy="28" r="28"></circle>
                    <path d="M28,40.4469697 L28,98.5599051" id="Line" stroke="#D2D2D2" stroke-width="7" stroke-linecap="round"></path>
                </g>
                <g id="Oval-48-+-Line" transform="translate(1284.000000, 211.000000)" sketch:type="MSShapeGroup">
                    <circle id="Oval-48" fill="#ECECEC" cx="38.5" cy="38.5" r="38.5"></circle>
                    <path d="M38.5,55.6136364 L38.5,135.395802" id="Line" stroke="#D2D2D2" stroke-width="7" stroke-linecap="round"></path>
                </g>
                <path d="M1218.77163,360 L1369.22837,360 C1372.41595,360 1375,357.313708 1375,354 C1375,350.686292 1372.41595,348 1369.22837,348 L1218.77163,348 C1215.58405,348 1213,350.686292 1213,354 C1213,357.313708 1215.58405,360 1218.77163,360 L1218.77163,360 Z" id="Shape" fill="#CACACA" sketch:type="MSShapeGroup"></path>
                <path d="M1346.77235,360 L1398.22765,360 C1401.41563,360 1404,357.313708 1404,354 C1404,350.686292 1401.41563,348 1398.22765,348 L1346.77235,348 C1343.58437,348 1341,350.686292 1341,354 C1341,357.313708 1343.58437,360 1346.77235,360 L1346.77235,360 Z" id="Shape" fill="#E7E7E7" sketch:type="MSShapeGroup"></path>
                <path d="M70.1879781,361 C73.4259149,361 76.0507812,358.537566 76.0507812,355.5 C76.0507812,352.462434 73.4259149,350 70.1879781,350 L5.86280315,350 C2.62486638,350 0,352.462434 0,355.5 C0,358.537566 2.62486638,361 5.86280315,361 L70.1879781,361 Z" id="Shape" fill="#CBCBCB" sketch:type="MSShapeGroup"></path>
            </g>
        </g>
    </g>
</svg>