<?xml version="1.0" encoding="utf-8"?>
<!-- Generator: Adobe Illustrator 19.0.0, SVG Export Plug-In . SVG Version: 6.00 Build 0)  -->
<svg version="1.1" id="圖層_1"
	 xmlns="http://www.w3.org/2000/svg" xmlns:xlink="http://www.w3.org/1999/xlink" x="0px" y="0px" viewBox="0 0 400 211"
	 style="enable-background:new 0 0 400 211;" xml:space="preserve">
<style type="text/css">
	.st0{fill:#231815;}
	.st1{fill:none;stroke:#8DC21F;stroke-width:11.8863;stroke-linecap:round;stroke-miterlimit:10;}
	.st2{fill:none;stroke:#DADF00;stroke-width:9.509;stroke-linecap:round;stroke-miterlimit:10;}
</style>
<metadata>
	<sfw>
		<slices></slices>
		<sliceSourceBounds  height="164.7" width="362.9" x="18.6" y="-188.7" bottomLeftOrigin="true"></sliceSourceBounds>
	</sfw>
</metadata>
<g id="XMLID_78_">
	<g id="XMLID_684_">
		<path id="XMLID_759_" class="st0" d="M116.2,43.6h-15.3V75h-6.2V25.7h21.5V43.6z M100.9,32.8h9.5v-2.5h-9.5V32.8z M110.4,36.7
			h-9.5v2.3h9.5V36.7z M104.5,46.3h28v5.4h-5.1v4.6h6.4v5.4h-6.4v11.5h-5.8V61.7h-6.5c-0.8,5.4-3.1,9.5-6.9,12.3l-4.8-4
			c3-2.1,4.9-4.8,5.7-8.3h-5.9v-5.4h6.5v-4.6h-5.2V46.3z M115.6,56.2h6.1v-4.6h-6.1V56.2z M142.4,70.2c0,3.2-1.5,4.8-4.5,4.8h-7.5
			l-1.2-6.2h5c1.2,0,1.8-0.6,1.8-1.9V43.6h-15.5V25.7h21.8V70.2z M126.4,32.8h9.6v-2.5h-9.6V32.8z M126.4,39.1h9.6v-2.3h-9.6V39.1z"
			/>
		<path id="XMLID_750_" class="st0" d="M153.9,49.7c-2-2.2-4.3-4.5-7.2-7l4.3-4.3c3.7,3.3,6.1,5.6,7.4,7L153.9,49.7z M147.1,73.2
			c1.9-5.7,3.7-12.3,5.3-19.9l6,1.8c-2.2,9.7-4,16.4-5.2,20.1L147.1,73.2z M155.3,35.6c-2.1-2.1-4.6-4.3-7.6-6.7l4.1-4.5
			c3.9,3.2,6.5,5.5,7.8,6.8L155.3,35.6z M198.4,25.8v5.6h-13.3l-1.4,4.6h12v22.4h-8.9v11.8c0,3.2-1.5,4.8-4.5,4.8h-6.6l-1.2-6.2h4.2
			c1.2,0,1.8-0.6,1.8-1.9v-8.5h-9.6V36h6.5l1.3-4.6h-11v17.7c0,9.4-2,18.1-6.1,26.1l-5.6-3.7c3.8-6.3,5.7-13.8,5.7-22.4V25.8H198.4z
			 M165.3,69.8c2.7-3.1,5-6.5,6.9-10.1l5.1,2.6c-1.8,3.8-4.1,7.4-6.7,10.7L165.3,69.8z M176.7,45.1h13.1v-3.9h-13.1V45.1z
			 M189.8,49.9h-13.1v3.3h13.1V49.9z M188.5,62.5l4.6-3c2.5,3.5,4.6,6.9,6.2,10.1L194,73C192.9,70.1,191.1,66.6,188.5,62.5z"/>
		<path id="XMLID_746_" class="st0" d="M201.5,61.1c3.7-8,6.5-16.3,8.4-25l6.2,1.3c-1.7,8.9-4.3,17.4-7.8,25.5L201.5,61.1z
			 M231.3,24.1v45.4c0,3.7-1.8,5.6-5.5,5.6h-10.4l-1.1-7.1h7.8c1.5,0,2.2-0.7,2.2-2.2V24.1H231.3z M246.8,62.4
			c-2.3-8.8-5.2-17-8.8-24.8l5.8-2.1c3.7,7.6,6.8,16,9.5,25L246.8,62.4z"/>
		<path id="XMLID_741_" class="st0" d="M255.9,26h20.4v5.7h-7.6c-0.9,1.7-1.9,3.2-2.9,4.7c1.1,1.7,2.1,3.4,3,5.3
			c1.7-1.7,3.5-3.7,5.3-5.8l3.2,2.7h8.4v-4.9h-7.1v-5.4h7.1v-4.1h6.2v4.1h6.6v4.9c1.4-1.8,2.7-3.7,3.9-5.8l4.8,3.3
			c-1.6,2.8-3.5,5.5-5.5,7.9h5.7v5.6h-11c-1.9,1.6-3.9,3.2-6.1,4.7h13.7V75h-6.2v-1.9h-12.2V75h-6.2V54.9c-0.8,0.4-1.7,0.7-2.5,1
			l-2.9-5.3c4.7-1.7,9-3.9,12.9-6.5h-10.6v-2.6c-1.8,1.7-3.7,3.3-5.7,4.8c0.4,1.5,0.8,3.3,1,5.3c2.8,2.7,5.3,5.4,7.4,8.2l-4.1,4.2
			c-0.8-1.4-1.7-2.7-2.6-4.1c0,0.9,0.1,1.8,0.1,2.8c0,4.7-0.9,7.9-2.6,9.7c-1.8,1.8-4.2,2.7-7.4,2.7h-4.1l-1.1-5.9h4.3
			c1.7,0,3.1-0.3,4-0.9c0.9-0.6,1.4-2.5,1.4-5.6c0-1.3,0-2.6-0.1-3.7c-2.4,3-5.1,5.7-8.2,8l-3.4-4.9c4.3-2.7,8-6.1,10.9-10.1
			c-0.2-1.4-0.4-2.6-0.7-3.6c-2,2.7-4.3,5-6.9,7.1l-3.2-4.6c3.3-2,6-4.6,8.3-7.6c-0.4-0.9-0.9-1.8-1.4-2.6c-1.3,1.3-2.8,2.6-4.2,3.8
			l-3-5.3c3.2-1.7,5.9-4.3,8.3-7.7h-7.3V26z M285.6,58.6h12.2v-4.8h-12.2V58.6z M285.6,68.1h12.2v-4.6h-12.2V68.1z M298.2,33.6H292
			v4.9h1.8C295.3,37,296.8,35.3,298.2,33.6z"/>
		<path id="XMLID_738_" class="st0" d="M142.7,138.5H94.4v-6.5h20.9v-7H99v-5.9h16.2v-6.6h-12.2V110c-2.3,1.2-4.7,2.3-7.1,3.3
			l-3.4-5.9c7.2-2.4,13.7-6,19.3-10.8h-8.2v-6.2h16.7c6.3,7.5,14.4,13.1,24.3,16.9l-3.2,5.9c-2.7-1.1-5.3-2.2-7.7-3.6v3.1H122v6.6
			h16.3v5.9H122v7h20.8V138.5z M109,106.5h19.8c-3.6-2.5-6.8-5.3-9.6-8.4C116,101.3,112.6,104,109,106.5z"/>
		<path id="XMLID_734_" class="st0" d="M152.1,91.4h42.4V109h-14.8c0,2.4,0.2,4.7,0.4,6.8h18.3v6.2h-17.3c0.5,1.8,1.1,3.5,1.8,4.8
			c2.1,4.2,4.4,6.3,6.8,6.3c1.2,0,2.6-2.3,4.5-6.8l4.4,5.5c-2.6,5.6-5.5,8.4-8.9,8.4c-4.5,0-8.4-2.8-11.7-8.5
			c-1.6-2.7-2.8-6-3.6-9.7h-15.8v10.1l14.3-3.3l0.4,6.5c-9.6,2-16.5,3.6-20.8,4.6l-1.8-5.8c0.8-0.5,1.3-1.3,1.3-2.4V91.4z M188,97.1
			h-29.4v6.2H188V97.1z M158.6,115.8h14.8c-0.3-2.2-0.4-4.4-0.4-6.8h-14.5V115.8z"/>
		<path id="XMLID_729_" class="st0" d="M201.7,134.7c6.4-2.3,11.6-5.5,15.7-9.5l4.5,4.3c-4.6,4.6-10.3,8.2-17,10.9L201.7,134.7z
			 M220,97.8h14.3v-8.5h6.7v8.5h10v6.5h-10V118h11.5v6.5h-50.8V118h11.6v-13.7h-9.8v-6.5h9.8v-8.5h6.7V97.8z M234.4,104.3H220V118
			h14.3V104.3z M231.8,130l4.4-4.7c6.5,3.2,12.2,6.6,17,10l-4.8,5.2C244.4,137.3,238.9,133.8,231.8,130z"/>
		<path id="XMLID_724_" class="st0" d="M306.4,98.1h-49.9v-5.2H278c-0.3-1.2-0.6-2.5-1-3.7l6.6-0.7c0.5,1.5,0.9,3,1.1,4.4h21.7V98.1
			z M260.1,114.9h41.7v5c-2.7,1.7-6.2,3.3-10.4,4.8h14.9v5.4h-19.8v5.4c0,3.2-1.5,4.8-4.5,4.8h-12.1l-1.1-5.9h9.3
			c1.3,0,1.9-0.6,1.9-1.8V130h-23.6v-5.4h23.6V123h2.8c3.4-1.1,6.4-2.1,8.9-3.2h-31.7V114.9z M300.2,100.2v12.4h-37.3v-12.4H300.2z
			 M293.7,104.8h-24.3v3.3h24.3V104.8z"/>
		<path id="XMLID_722_" class="st0" d="M59.9,186c-2.9,0-5.1-0.7-6.5-2.2c-1.4-1.4-2.1-3.5-2.1-6.2h4.9c0,1.2,0.3,2.2,0.9,2.8
			c0.6,0.7,1.5,1,2.8,1c1.3,0,2.2-0.4,2.8-1.1c0.6-0.7,0.9-1.7,0.9-2.8c0-1.1-0.3-2.1-0.9-2.8c-0.6-0.7-1.4-1.1-2.3-1.1h-1.9v-4.4
			h1.5c0.9,0,1.6-0.3,2.2-0.9c0.6-0.6,0.9-1.5,0.9-2.6c0-0.9-0.3-1.7-0.9-2.3c-0.6-0.6-1.4-0.9-2.4-0.9c-1.1,0-2,0.3-2.5,0.9
			c-0.5,0.6-0.8,1.5-0.8,2.6h-4.8c0-2.6,0.7-4.6,2.2-6c1.5-1.4,3.5-2.1,6-2.1c2.4,0,4.4,0.7,5.9,2c1.5,1.4,2.3,3.2,2.3,5.5
			c0,1.3-0.3,2.5-0.8,3.5c-0.6,1-1.4,1.8-2.4,2.3c1.2,0.5,2.1,1.3,2.8,2.3c0.7,1.1,1,2.3,1,3.8c0,2.6-0.7,4.6-2.2,6.1
			C64.7,185.2,62.6,186,59.9,186z"/>
		<path id="XMLID_719_" class="st0" d="M83.9,185.4H73.1v-26.8h10.7c2.9,0,5.2,0.9,7,2.8c1.8,1.8,2.7,4.2,2.7,7.1v7
			c0,3.2-0.9,5.6-2.7,7.4C89,184.5,86.7,185.4,83.9,185.4z M78,163.2v17.5h5.8c1.3,0,2.4-0.5,3.3-1.4c0.9-0.9,1.4-2.3,1.4-4.2v-6.7
			c0-1.8-0.4-3.1-1.2-4c-0.8-0.9-2-1.3-3.5-1.3H78z"/>
		<path id="XMLID_715_" class="st0" d="M96.8,179.6c2.4-5.2,4.2-10.6,5.4-16.2l4,0.8c-1.1,5.7-2.8,11.2-5.1,16.5L96.8,179.6z
			 M116,155.6v29.3c0,2.4-1.2,3.6-3.6,3.6h-6.7L105,184h5c1,0,1.4-0.5,1.4-1.4v-26.9H116z M126.1,180.4c-1.5-5.7-3.4-11-5.7-16
			l3.7-1.3c2.4,4.9,4.4,10.3,6.1,16.2L126.1,180.4z"/>
		<path id="XMLID_710_" class="st0" d="M132,156.8h13.2v3.7h-4.9c-0.6,1.1-1.2,2.1-1.9,3.1c0.7,1.1,1.4,2.2,1.9,3.4
			c1.1-1.1,2.3-2.4,3.4-3.8l2.1,1.8h5.4v-3.2h-4.6v-3.5h4.6v-2.7h4v2.7h4.3v3.2c0.9-1.2,1.8-2.4,2.5-3.8l3.1,2.1
			c-1.1,1.8-2.2,3.5-3.5,5.1h3.7v3.6h-7.1c-1.2,1.1-2.6,2.1-3.9,3h8.8v17h-4v-1.2h-7.9v1.2h-4v-13c-0.5,0.2-1.1,0.5-1.6,0.7
			l-1.9-3.4c3-1.1,5.8-2.5,8.4-4.2h-6.8v-1.7c-1.1,1.1-2.4,2.1-3.7,3.1c0.3,1,0.5,2.1,0.7,3.4c1.8,1.7,3.4,3.5,4.8,5.3l-2.6,2.7
			c-0.5-0.9-1.1-1.8-1.7-2.6c0,0.6,0,1.2,0,1.8c0,3-0.6,5.1-1.7,6.3c-1.1,1.1-2.7,1.7-4.8,1.7h-2.7l-0.7-3.8h2.8
			c1.1,0,2-0.2,2.6-0.6c0.6-0.4,0.9-1.6,0.9-3.6c0-0.9,0-1.7,0-2.4c-1.5,1.9-3.3,3.7-5.3,5.2l-2.2-3.2c2.8-1.8,5.2-3.9,7.1-6.5
			c-0.1-0.9-0.3-1.7-0.5-2.3c-1.3,1.7-2.8,3.3-4.5,4.6l-2.1-2.9c2.1-1.3,3.9-2.9,5.3-4.9c-0.3-0.6-0.6-1.2-0.9-1.7
			c-0.9,0.9-1.8,1.7-2.7,2.5l-1.9-3.4c2-1.1,3.8-2.8,5.4-5H132V156.8z M151.2,177.9h7.9v-3.1h-7.9V177.9z M151.2,184.1h7.9v-2.9
			h-7.9V184.1z M159.3,161.8h-4v3.2h1.2C157.4,164,158.4,162.9,159.3,161.8z"/>
		<path id="XMLID_708_" class="st0" d="M173.8,185.4H169v-19.6h4.8v1.9c0.4-0.7,1.1-1.3,2-1.8c0.9-0.5,1.9-0.7,3.1-0.7
			c1.4,0,2.6,0.3,3.5,0.9c0.9,0.6,1.6,1.3,2.1,2.2c0.5-0.8,1.3-1.5,2.4-2.2c1.1-0.6,2.3-0.9,3.5-0.9c2.1,0,3.7,0.6,4.9,1.9
			c1.2,1.3,1.8,3,1.8,5v13.2h-4.8v-12.5c0-1-0.3-1.8-0.8-2.4c-0.5-0.6-1.2-0.8-2.1-0.8c-0.9,0-1.7,0.2-2.4,0.5
			c-0.7,0.4-1.2,0.9-1.7,1.6v13.6h-4.8v-12.6c0-0.9-0.3-1.7-0.8-2.3c-0.5-0.6-1.2-0.9-2.1-0.9c-0.9,0-1.7,0.2-2.4,0.6
			c-0.7,0.4-1.2,0.9-1.5,1.5V185.4z"/>
		<path id="XMLID_705_" class="st0" d="M207.9,186c-2.1,0-3.7-0.5-4.7-1.6c-1-1.1-1.5-2.5-1.5-4.4c0-2.3,1-4,2.9-5.1
			c1.9-1.1,4.9-1.7,8.8-1.7c0-1.3-0.3-2.2-0.8-2.8c-0.5-0.6-1.3-0.9-2.5-0.9c-1.1,0-2,0.2-2.7,0.7c-0.6,0.5-1,1.1-1.3,1.7l-4.1-2.1
			c0.5-1.3,1.5-2.5,2.8-3.4c1.4-0.9,3.1-1.4,5.4-1.4c2.5,0,4.5,0.6,5.8,1.9c1.3,1.3,2,3.1,2,5.5v12.7h-4.6v-1.7
			c-0.7,0.7-1.5,1.3-2.4,1.7C210.1,185.8,209.1,186,207.9,186z M213.4,176.8c-1.9,0-3.5,0.3-4.9,0.7c-1.4,0.4-2,1.1-2,2.1
			c0,0.7,0.2,1.2,0.7,1.6c0.5,0.3,1.1,0.5,1.9,0.5c1,0,1.8-0.2,2.7-0.6c0.8-0.4,1.4-0.8,1.7-1.1V176.8z"/>
		<path id="XMLID_703_" class="st0" d="M228.4,185.4h-4.8v-26.8h4.8v14.3l6.6-7h6l-7.4,7.5l8.1,12.1h-5.8l-5.5-8.7l-1.9,2V185.4z"/>
		<path id="XMLID_700_" class="st0" d="M252.6,186c-2.9,0-5.2-0.7-6.6-2.1c-1.5-1.4-2.2-3.6-2.2-6.5v-3.4c0-2.7,0.8-4.8,2.3-6.4
			c1.6-1.5,3.6-2.3,6.2-2.3c2.6,0,4.6,0.8,6.2,2.3c1.6,1.5,2.4,3.6,2.4,6.4v3.6h-12.3c0,1.6,0.4,2.7,1,3.3c0.6,0.6,1.7,0.9,3.1,0.9
			c1,0,1.8-0.2,2.4-0.6c0.6-0.4,1.1-1,1.3-1.8l4.2,1.9c-0.4,1.1-1.2,2.2-2.4,3.2C257,185.5,255.1,186,252.6,186z M252.2,169.5
			c-1.2,0-2.1,0.4-2.7,1.1c-0.6,0.7-0.9,1.8-0.9,3.2h7.4c0-1.4-0.3-2.4-0.9-3.2C254.4,169.9,253.5,169.5,252.2,169.5z"/>
		<path id="XMLID_698_" class="st0" d="M270,185.4h-4.8v-19.6h4.8v1.9c0.4-0.7,1-1.2,1.9-1.7c0.9-0.5,1.9-0.7,3.1-0.7
			c1.1,0,2,0.2,2.9,0.7c0.8,0.4,1.5,0.9,1.8,1.4L277,171c-0.3-0.4-0.7-0.7-1.2-1c-0.5-0.3-1.1-0.4-1.8-0.4c-0.8,0-1.6,0.2-2.3,0.7
			c-0.7,0.5-1.2,1.1-1.5,1.7V185.4z"/>
		<path id="XMLID_696_" class="st0" d="M280.3,185.2c7.9-4.1,12.7-9.9,14.3-17.4h-13.4v-4.3h14c0-0.6,0-1.2,0-1.9v-6h4.4v6
			c0,0.6,0,1.3-0.1,1.9h14v4.3h-13.5c1.2,3.8,2.7,6.9,4.3,9.1c2.1,2.8,5.4,5.5,9.9,7.9l-3.1,3.7c-4.8-3-8.3-6.1-10.5-9.3
			c-1.1-1.7-2.1-3.7-3.1-6.2c-2.4,6.7-7.2,11.9-14.3,15.6L280.3,185.2z"/>
		<path id="XMLID_685_" class="st0" d="M316.6,157.3h13.8c-0.1-0.6-0.3-1.2-0.4-1.8l4.3-0.4c0.2,0.7,0.3,1.4,0.5,2.1h13.4v5.9h-2.2
			v0.8h-6.3v1.4h5.4v2.2h-5.4v1.2h9.1v2.4h-6.2c2,0.9,4.2,1.7,6.6,2.4l-1.8,3.8c-1.2-0.5-2.4-1.1-3.5-1.8v8.9h-3.2c0,0,0.1,0,0.2,0
			c2.4,0.2,5,0.5,7.7,1l-1.5,3c-4-0.9-7.9-1.5-11.8-2l1.3-2H328l1.2,2.1c-3.6,0.9-7.6,1.6-12.1,2l-1-3.1c3.3-0.1,6.4-0.5,9.5-0.9
			h-4.7v-8.8c-1.1,0.6-2.2,1.1-3.3,1.6l-1.8-3.7c2.3-0.6,4.4-1.5,6.3-2.5h-5.8v-2.4h8.9v-1.2h-5.8v-2.2h5.8V164h-6.6v-0.8h-1.9
			V157.3z M320.4,161.6h4.7v-1.5h-4.7V161.6z M324.7,176.2h15.5v-1.3h-15.5V176.2z M324.7,179.3h15.5v-1.1h-15.5V179.3z
			 M324.7,182.4h15.5v-1.2h-15.5V182.4z M337.7,171.3h-10.4c-0.5,0.4-1.1,0.9-1.6,1.4h13.7C338.8,172.2,338.3,171.7,337.7,171.3z
			 M329,161.6h7v-1.5h-7V161.6z M329,165.4h7V164h-7V165.4z M335.9,167.6h-7v1.2h7V167.6z M339.8,161.6h4.7v-1.5h-4.7V161.6z"/>
	</g>
</g>
<g id="XMLID_75_">
	<path id="XMLID_4_" class="st1" d="M326.5,131c11.2-13.1,18-30.2,18-48.8c0-18.6-6.8-35.7-18-48.8"/>
	<path id="XMLID_3_" class="st1" d="M73.6,33.3c-11.2,13.1-18,30.2-18,48.8c0,18.6,6.8,35.7,18,48.8"/>
</g>
<g id="XMLID_1_">
	<g id="XMLID_73_">
		<line id="XMLID_69_" class="st2" x1="23.4" y1="65.4" x2="32.5" y2="74.6"/>
	</g>
	<g id="XMLID_71_">
		<line id="XMLID_70_" class="st2" x1="376.8" y1="65.4" x2="367.6" y2="74.6"/>
	</g>
</g>
</svg>
